<?xml version="1.0" standalone="no"?><!DOCTYPE svg PUBLIC "-//W3C//DTD SVG 1.1//EN" "http://www.w3.org/Graphics/SVG/1.1/DTD/svg11.dtd"><svg t="1601014471864" class="icon" viewBox="0 0 1085 1024" version="1.1" xmlns="http://www.w3.org/2000/svg" p-id="5199" width="135.625" height="128" xmlns:xlink="http://www.w3.org/1999/xlink"><defs><style type="text/css"></style></defs><path d="M734.840664 563.305465a75.60887 75.60887 0 0 0 74.213013-76.772083 77.547558 77.547558 0 0 0-22.023506-54.283291 72.584515 72.584515 0 0 0-52.111959-22.178602 76.84963 76.84963 0 0 0 0 153.621713z m-367.652975 0a75.60887 75.60887 0 0 0 74.213014-76.772083 77.547558 77.547558 0 0 0-22.101054-54.283291 72.584515 72.584515 0 0 0-52.11196-22.178602 76.84963 76.84963 0 0 0 0 153.621713z" p-id="5200" fill="#777777"></path><path d="M1024.480795 523.911305a471.489155 471.489155 0 0 0-89.955168-253.580516 36.679995 36.679995 0 0 0-49.785532-7.754756 35.594329 35.594329 0 0 0-7.754756 49.785532 400.455592 400.455592 0 0 1 76.927178 231.712105v20.550103l17.913486 10.081183a82.89834 82.89834 0 0 1-39.70435 155.095117h-20.550103l-10.081183 17.835938a404.488065 404.488065 0 0 1-706.303162-4.652853l-10.934206-20.162366-23.264268 1.938689A83.51872 83.51872 0 0 1 71.266206 642.093784a82.510602 82.510602 0 0 1 52.344602-77.004725l21.558221-8.607779 0.930571-23.264268A404.255422 404.255422 0 0 1 594.789773 148.115837h3.954926a35.594329 35.594329 0 0 0 3.877378-71.033564A481.260148 481.260148 0 0 0 549.81219 74.213013 475.211438 475.211438 0 0 0 76.074155 509.177269a155.560402 155.560402 0 0 0-48.777414 45.365322A153.466618 153.466618 0 0 0 0 642.093784a155.095117 155.095117 0 0 0 143.618078 153.699261 475.676724 475.676724 0 0 0 810.371986 3.412093A154.319641 154.319641 0 0 0 1085.665818 646.746638a154.242094 154.242094 0 0 0-61.185023-122.835333z" p-id="5201" fill="#777777"></path><path d="M270.796074 609.058524a35.749424 35.749424 0 0 0-15.897249 47.846844 322.05501 322.05501 0 0 0 567.415485 15.509511q4.420211-7.754756 8.452684-15.509511a35.749424 35.749424 0 0 0-15.89725-47.846844 36.369805 36.369805 0 0 0-47.846843 15.974797 262.963771 262.963771 0 0 1-6.513995 12.174967 252.029565 252.029565 0 0 1-90.110263 91.351024 254.976372 254.976372 0 0 1-260.869987-3.644735 250.633709 250.633709 0 0 1-90.730643-99.958803 36.447352 36.447352 0 0 0-47.846844-15.89725z m366.179571-387.737792a36.5249 36.5249 0 0 0-50.405913 0 35.594329 35.594329 0 0 0 0 50.405913 158.894947 158.894947 0 1 0 113.994911-271.416455 35.826972 35.826972 0 0 0-35.749424 34.973949 35.671877 35.671877 0 0 0 35.051496 36.21471 87.473646 87.473646 0 0 1 60.797286 149.046407 89.955168 89.955168 0 0 1-124.076094 0.697928z" p-id="5202" fill="#777777"></path></svg>