<svg t="1628663667152" class="icon" viewBox="0 0 1024 1024" version="1.1" xmlns="http://www.w3.org/2000/svg" p-id="3352" width="128" height="128"><path d="M830.464 102.4H192.4096a91.1872 91.1872 0 0 0-91.0848 91.0848v151.04a91.2384 91.2384 0 0 0 91.0848 91.136H830.464a91.2384 91.2384 0 0 0 91.136-91.136v-151.04A91.1872 91.1872 0 0 0 830.464 102.4z m39.936 242.1248a39.8848 39.8848 0 0 1-39.8848 39.8336H192.4096a39.8848 39.8848 0 0 1-39.8336-39.8336v-151.04A39.8848 39.8848 0 0 1 192.4096 153.6H830.464a39.8848 39.8848 0 0 1 39.936 39.8848zM830.464 587.9296H192.4096a91.1872 91.1872 0 0 0-91.0848 91.0848v151.04a91.1872 91.1872 0 0 0 91.0848 91.136H830.464a91.1872 91.1872 0 0 0 91.136-91.136v-151.04a91.1872 91.1872 0 0 0-91.136-91.0848z m39.936 242.1248a39.8848 39.8848 0 0 1-39.8848 39.8848H192.4096a39.8848 39.8848 0 0 1-39.8336-39.8848v-151.04a39.8848 39.8848 0 0 1 39.8336-39.7824H830.464a39.8848 39.8848 0 0 1 39.8848 39.7824z" p-id="3353"></path><path d="M340.5312 244.1216H222.464a25.6 25.6 0 0 0 0 51.2h118.0672a25.6 25.6 0 1 0 0-51.2zM793.6 729.0368h-33.3824v-26.9824a25.6 25.6 0 1 0-51.2 0v26.9824h-33.6896a25.6 25.6 0 0 0 0 51.2h33.4336v39.7824a25.6 25.6 0 1 0 51.2 0v-39.7312H793.6a25.6 25.6 0 1 0 0-51.2z" p-id="3354"></path></svg>