<svg t="1629372598045" class="icon" viewBox="0 0 1024 1024" version="1.1" xmlns="http://www.w3.org/2000/svg" p-id="1532" width="64" height="64"><path d="M63.317122 1024A63.374011 63.374011 0 0 1 0 960.739766V133.350524a63.374011 63.374011 0 0 1 63.317122-63.260233H195.128238v61.724239H63.317122a1.820438 1.820438 0 0 0-1.479106 1.479106V321.424564h900.434332V133.293636a1.592884 1.592884 0 0 0-1.479106-1.479106h-132.721336V70.090291h132.892002a62.577569 62.577569 0 0 1 44.714518 18.716382 62.577569 62.577569 0 0 1 18.375049 44.543851v385.705381h-61.724238V383.148803H61.894905v577.590963a1.535995 1.535995 0 0 0 1.479106 1.479107h448.681171v61.66735H63.374011z m149.958612-319.771379a30.890564 30.890564 0 0 1-30.947453-30.833675 30.890564 30.890564 0 0 1 30.947453-30.833675h255.316482a30.833675 30.833675 0 0 1 30.833675 30.833675 30.833675 30.833675 0 0 1-30.833675 30.833675z m502.782324-540.442643V30.893977a30.890564 30.890564 0 0 1 30.833675-30.947452 30.947452 30.947452 0 0 1 30.833675 30.947452v132.892001a30.947452 30.947452 0 0 1-30.833675 30.890564 30.890564 30.890564 0 0 1-30.833675-30.890564z m-472.80198 0V30.893977a30.890564 30.890564 0 0 1 30.833675-30.947452 30.890564 30.890564 0 0 1 30.833675 30.947452v132.892001a30.890564 30.890564 0 0 1-30.833675 30.890564 30.890564 30.890564 0 0 1-30.833675-30.890564z m109.852078-32.028337V70.090291h317.040721v61.66735z" p-id="1533"></path><path d="M899.467224 849.465471a22.75548 22.75548 0 0 1-30.264788 14.734173l-103.65121-41.471862a24.91725 24.91725 0 0 1-15.644392-23.153701v-124.700028a24.974139 24.974139 0 1 1 49.891389 0v107.747196l89.315258 35.782992a25.941247 25.941247 0 0 1 10.410632 31.004341zM774.767195 1024a249.343169 249.343169 0 1 1 249.343169-249.343169A249.343169 249.343169 0 0 1 774.710307 1024z m0-49.891389a199.45178 199.45178 0 1 0-199.451779-199.45178 199.45178 199.45178 0 0 0 199.394891 199.45178z" p-id="1534"></path></svg>