<svg t="1630028806845" class="icon" viewBox="0 0 1046 1024" version="1.1" xmlns="http://www.w3.org/2000/svg" p-id="1492" width="64" height="64"><path d="M636.349217 134.299826v41.538783h-51.2V134.299826H323.183304v41.538783h-51.2V134.299826H83.099826v96.100174H832.556522V134.299826h-196.207305z m0-51.2H883.756522V350.831304h-51.2v-69.231304H83.099826v477.874087c0 10.462609 8.45913 18.921739 18.921739 18.921739h282.112v51.2H102.021565a70.121739 70.121739 0 0 1-70.121739-70.121739V83.099826h240.083478V66.782609h51.2v16.317217h261.965913V66.782609h51.2v16.317217z" p-id="1493" ></path><path d="M153.154783 475.781565h317.662608v-51.2H153.154783zM331.219478 645.12h139.597913v-51.2H331.241739z" p-id="1494" ></path><path d="M714.128696 949.715478c155.514435 0 281.6-126.085565 281.6-281.6 0-155.514435-126.085565-281.6-281.6-281.6-155.536696 0-281.6 126.085565-281.6 281.6 0 155.514435 126.063304 281.6 281.6 281.6z m0-51.2c-127.24313 0-230.4-103.15687-230.4-230.4 0-127.24313 103.15687-230.4 230.4-230.4 127.24313 0 230.4 103.15687 230.4 230.4 0 127.24313-103.15687 230.4-230.4 230.4z" p-id="1495" ></path><path d="M718.358261 519.056696h-51.2v204.733217h207.515826v-51.2h-156.293565z" p-id="1496" ></path></svg>