<?xml version="1.0" standalone="no"?><!DOCTYPE svg PUBLIC "-//W3C//DTD SVG 1.1//EN" "http://www.w3.org/Graphics/SVG/1.1/DTD/svg11.dtd"><svg t="1600944715395" class="icon" viewBox="0 0 1345 1024" version="1.1" xmlns="http://www.w3.org/2000/svg" p-id="7044" width="168.125" height="128" xmlns:xlink="http://www.w3.org/1999/xlink"><defs><style type="text/css"></style></defs><path d="M572.060779 640.168661c-106.982882-37.645682-195.623097-65.591839-274.659822-98.435775v336.602334a548.07119 548.07119 0 0 0 385.29203 144.628563 519.548824 519.548824 0 0 0 364.93263-144.628563V516.187602c-102.085102 44.944334-195.623097 93.537995-264.960296 122.732606a268.897728 268.897728 0 0 1-210.220402 1.248453z" p-id="7045" fill="#777777"></path><path d="M1335.346185 566.029716l-48.59366-48.59366V324.213831c32.843937-20.647504 113.03308-38.413961-6.050199-91.137122C1145.677253 174.687488 872.265885 69.913409 753.182605 19.110946c-66.840292-33.996356-105.734428-18.246632-178.720954 12.388502C451.729046 78.94069 218.364232 167.580905 78.633449 222.3208c-108.1353 41.295008-100.836648 72.890491-1.248454 121.580187 149.526343 72.890491 449.635414 185.923572 512.826381 210.220401a195.911201 195.911201 0 0 0 172.862824-4.89778c63.190966-28.810471 155.576542-67.224432 443.585216-188.420479v161.434672l-43.791916 43.791915a29.38668 29.38668 0 0 0 0 42.543462l65.591839 65.591839a29.38668 29.38668 0 0 0 42.543462 0l65.591838-65.591839a30.443064 30.443064 0 0 0-1.248454-42.543462z" p-id="7046" fill="#777777"></path></svg>