<svg t="1628061847755" class="icon" viewBox="0 0 1024 1024" version="1.1" xmlns="http://www.w3.org/2000/svg" p-id="4568" width="128" height="128"><path d="M934.743552 640.7168c-6.1952-14.6944-14.4896-29.3376-20.736-35.6352-6.1952-14.6432-20.6848-20.9408-28.9792-29.3376-6.2464 0-6.2464-6.2464-14.5408-6.2464-8.2944 0-14.4896-6.2976-20.6848-6.2976-6.2464 0-14.5408 0-20.736 6.2976-6.2464 0-20.736 6.2464-29.0304 14.6432l-28.9792 29.3376 134.656 136.1408 20.736-20.992c6.2464-6.2464 14.5408-14.6432 14.5408-20.8896 6.1952-6.2976 6.1952-20.992 6.1952-29.3376v-20.992l-12.4416-16.6912M557.553152 833.3824c-6.1952 6.2976-14.4896 14.6944-14.4896 20.992 0 6.2464-6.1952 6.2464-6.1952 14.6432 0 8.3456-6.2464 6.2464-6.2464 20.9408 0 6.2976-6.1952 14.6432-6.1952 20.9408l-6.2464 20.9408c0 6.2976-6.1952 20.992-6.1952 20.992 0 20.8896 0 35.584 6.1952 50.176 6.2464 6.3488 20.736 20.992 43.52 20.992h6.2464c6.1952 0 14.4896 0 20.736-6.2976 6.1952 0 14.4896-6.2464 28.9792-6.2464 6.2464 0 14.5408-6.2976 20.736-6.2976 6.1952-6.2976 14.4896-6.2976 20.736-6.2976l20.736-14.6432s120.1664-129.8944 192.7168-201.1136l-136.8064-136.1408c-64.2048 73.3184-178.176 186.4192-178.176 186.4192" p-id="4569"></path><path d="M692.209152 210.7392H323.313152c-14.7456 0-29.4912-14.848-29.4912-36.1472s14.7456-36.1984 29.4912-36.1984h368.7936c21.0944 0 35.84 21.2992 35.84 36.1984 0 14.848-14.7456 36.1472-35.84 36.1472z m0 219.2896H323.313152c-14.7456 0-29.4912-14.848-29.4912-36.1984 0-21.248 14.7456-36.1984 29.4912-36.1984h368.7936c21.0944 0 35.84 21.2992 35.84 36.1984s-14.7456 36.1984-35.84 36.1984zM822.769152 0H121.021952C99.978752 0 76.785152 21.2992 76.785152 44.6976v934.6048c0 21.2992 21.0944 44.6976 44.2368 44.6976h252.928c29.4912 0 44.2368-14.8992 44.2368-36.1984 0-102.1952 80.0768-204.3904 80.0768-204.3904l274.0224-270.336s50.5344-51.0976 130.6624-14.8992c29.4912 0 44.2368-21.2992 44.2368-44.6976V44.6976a36.8128 36.8128 0 0 0-11.6736-28.416C922.916352 3.584 915.338752 0 902.948352 0H822.769152z" p-id="4570"></path></svg>