<svg t="1628062006071" class="icon" viewBox="0 0 1024 1024" version="1.1" xmlns="http://www.w3.org/2000/svg" p-id="8088" width="128" height="128"><path d="M846.6432 669.5936h-46.3872v-103.424c0-28.5696-24.3712-51.8144-54.272-51.8144h-208.896V407.552H611.328c18.0224 0 32.768-14.7456 32.768-32.768V178.176c0-18.0224-14.7456-32.768-32.768-32.768H414.72c-18.0224 0-32.768 14.7456-32.768 32.768v196.608c0 18.0224 14.7456 32.768 32.768 32.768h71.4752v106.7008H278.528c-30.0032 0-54.272 23.2448-54.272 51.8144v103.424h-47.104c-18.0224 0-32.768 14.7456-32.768 32.768v144.1792c0 18.0224 14.7456 32.768 32.768 32.768h144.1792c18.0224 0 32.768-14.7456 32.768-32.768V702.3616c0-18.0224-14.7456-32.768-32.768-32.768h-46.3872V566.4768c0.3072-0.512 1.536-1.4336 3.4816-1.4336h207.6672v104.5504h-46.08c-18.0224 0-32.768 14.7456-32.768 32.768v144.1792c0 18.0224 14.7456 32.768 32.768 32.768h144.1792c18.0224 0 32.768-14.7456 32.768-32.768V702.3616c0-18.0224-14.7456-32.768-32.768-32.768h-47.3088V565.0432h208.7936c1.9456 0 3.1744 0.9216 3.4816 1.4336v103.1168h-47.104c-18.0224 0-32.768 14.7456-32.768 32.768v144.1792c0 18.0224 14.7456 32.768 32.768 32.768h144.1792c18.0224 0 32.768-14.7456 32.768-32.768V702.3616c0.4096-18.0224-14.336-32.768-32.3584-32.768z m0 0" p-id="8089"></path></svg>