<svg t="1626746934715" class="icon" viewBox="0 0 1024 1024" version="1.1" xmlns="http://www.w3.org/2000/svg" p-id="2053" width="64" height="64"><path d="M695.308642 594.17284H309.728395c-18.962963 0-37.925926 18.962963-37.925926 37.925925s18.962963 37.925926 37.925926 37.925926h385.580247c18.962963 0 37.925926-18.962963 37.925926-37.925926s-18.962963-37.925926-37.925926-37.925925zM309.728395 512h183.308642c18.962963 0 37.925926-18.962963 37.925926-37.925926s-12.641975-37.925926-37.925926-37.925926H309.728395c-18.962963 0-37.925926 18.962963-37.925926 37.925926s18.962963 37.925926 37.925926 37.925926z m385.580247 240.197531H309.728395c-18.962963 0-37.925926 18.962963-37.925926 37.925926s18.962963 37.925926 37.925926 37.925926h385.580247c18.962963 0 37.925926-18.962963 37.925926-37.925926 0-25.283951-18.962963-37.925926-37.925926-37.925926z" p-id="2054" ></path><path d="M935.506173 322.37037V316.049383v-6.320988L651.061728 18.962963h-6.320987H208.592593c-63.209877 0-113.777778 50.567901-113.777778 113.777778v777.481481c0 63.209877 50.567901 113.777778 113.777778 113.777778h613.135802c63.209877 0 113.777778-50.567901 113.777778-113.777778V821.728395c0-18.962963-18.962963-37.925926-37.925926-37.925926s-37.925926 18.962963-37.925926 37.925926v88.493827c0 18.962963-18.962963 37.925926-37.925926 37.925926H208.592593c-18.962963 0-37.925926-18.962963-37.925926-37.925926V113.777778c0-18.962963 18.962963-37.925926 37.925926-37.925926h372.938271v252.839506c0 18.962963 18.962963 37.925926 37.925926 37.925926h246.518519V632.098765c0 18.962963 18.962963 37.925926 37.925926 37.925926s37.925926-18.962963 37.925925-37.925926l-6.320987-309.728395c0 6.320988 0 6.320988 0 0z m-278.123457-31.604938V132.740741l151.703704 158.024691h-151.703704z" p-id="2055" ></path></svg>