<svg t="1627976601817" class="icon" viewBox="0 0 1249 1024" version="1.1" xmlns="http://www.w3.org/2000/svg" p-id="5219" width="64" height="64"><path d="M758.571898 0H490.501525a96.082571 96.082571 0 0 0-96.082571 96.082571v200.091954a96.082571 96.082571 0 0 0 96.082571 96.082571h268.070373a96.082571 96.082571 0 0 0 96.082571-96.082571V96.082571a96.082571 96.082571 0 0 0-96.082571-96.082571z m52.605207 300.258034a48.041285 48.041285 0 0 1-48.041285 48.041286h-278.639456a48.041285 48.041285 0 0 1-48.041285-48.041286V91.999062a48.041285 48.041285 0 0 1 48.041285-48.041286h278.639456a48.041285 48.041285 0 0 1 48.041285 48.041286zM277.918837 675.70068H96.082571a96.082571 96.082571 0 0 0-96.082571 96.082571v156.134178a96.082571 96.082571 0 0 0 96.082571 96.082571h181.836266a96.082571 96.082571 0 0 0 96.08257-96.082571v-156.134178a96.082571 96.082571 0 0 0-96.08257-96.082571z m55.487684 256.300258a48.041285 48.041285 0 0 1-48.041285 48.041286H87.915552a48.041285 48.041285 0 0 1-48.041285-48.041286v-165.262022a48.041285 48.041285 0 0 1 48.041285-48.041285h197.449684a48.041285 48.041285 0 0 1 48.041285 48.041285zM602.677926 392.257096h41.315506v283.443584h-41.315506z" p-id="5220" ></path><path d="M715.094534 675.70068h-70.860896v8.167019h-41.555712v-8.167019h-68.699038a96.082571 96.082571 0 0 0-96.082571 96.082571v156.134178a96.082571 96.082571 0 0 0 96.082571 96.082571h181.115646a96.082571 96.082571 0 0 0 96.082571-96.082571v-156.134178a96.082571 96.082571 0 0 0-96.082571-96.082571z m56.208304 256.300258a48.041285 48.041285 0 0 1-48.041285 48.041286h-198.170303a48.041285 48.041285 0 0 1-48.041285-48.041286v-165.262022a48.041285 48.041285 0 0 1 48.041285-48.041285h198.170303a48.041285 48.041285 0 0 1 48.041285 48.041285zM1152.990852 675.70068h-181.836266a96.082571 96.082571 0 0 0-96.082571 96.082571v156.134178a96.082571 96.082571 0 0 0 96.082571 96.082571H1152.990852a96.082571 96.082571 0 0 0 96.08257-96.082571v-156.134178a96.082571 96.082571 0 0 0-96.08257-96.082571z m55.487684 256.300258a48.041285 48.041285 0 0 1-48.041285 48.041286h-198.170303a48.041285 48.041285 0 0 1-48.041285-48.041286v-165.262022a48.041285 48.041285 0 0 1 48.041285-48.041285h198.170303a48.041285 48.041285 0 0 1 48.041285 48.041285z" p-id="5221" ></path><path d="M192.165142 632.70373a48.041285 48.041285 0 0 1 48.041285-48.041286h777.788412a48.041285 48.041285 0 0 1 48.041286 48.041286v70.620689H1104.949566v-70.620689a96.082571 96.082571 0 0 0-96.082571-96.082571H247.41262a96.082571 96.082571 0 0 0-96.082571 96.082571v70.620689H192.165142z" p-id="5222"></path><path d="M548.151067 675.70068h163.820784v29.545391h-163.820784z" p-id="5223" ></path></svg>