<?xml version="1.0" standalone="no"?><!DOCTYPE svg PUBLIC "-//W3C//DTD SVG 1.1//EN" "http://www.w3.org/Graphics/SVG/1.1/DTD/svg11.dtd"><svg t="1601001457911" class="icon" viewBox="0 0 1533 1024" version="1.1" xmlns="http://www.w3.org/2000/svg" p-id="3084" width="191.625" height="128" xmlns:xlink="http://www.w3.org/1999/xlink"><defs><style type="text/css"></style></defs><path d="M1190.8335723 106.66666665H335.5223953A122.323915 122.323915 0 0 0 213.3333333 228.85572865v549.844651a122.311656 122.311656 0 0 0 122.189062 122.176803h855.311177a122.287137 122.287137 0 0 0 122.176803-122.176803V228.85572865A122.311656 122.311656 0 0 0 1190.8335723 106.66666665z m61.076143 672.033713a61.174217 61.174217 0 0 1-61.088402 61.100661H335.5223953a61.186476 61.186476 0 0 1-61.088401-61.100661V228.86798865a61.174217 61.174217 0 0 1 61.088401-61.100661h855.311177a61.161958 61.161958 0 0 1 61.076143 61.088401z m0 0" p-id="3085" fill="#777777"></path><path d="M1075.3871593 527.97190565c33.002203-28.037161 54.38253-69.277655 54.382531-115.826453a152.727133 152.727133 0 1 0-305.454267 0c0 46.585576 21.368068 87.789292 54.370271 115.826453-68.517575 35.687003-115.470932 107.232641-115.470932 189.640073a30.55033 30.55033 0 1 0 61.100661 0 152.739393 152.739393 0 1 1 305.466526 0 30.55033 30.55033 0 0 0 61.100661 0c0-82.407432-46.965616-153.95307-115.458673-189.640073z m-190.020113-115.826453a91.638732 91.638732 0 1 1 91.626473 91.638731 91.626473 91.626473 0 0 1-91.626473-91.638731z m-152.739393-91.650992h-366.554927a30.55033 30.55033 0 0 0 0 61.100661h366.554927a30.55033 30.55033 0 1 0 0-61.100661z m-30.55033 152.739393H366.0727263a30.55033 30.55033 0 1 0 0 61.088402h336.004597a30.55033 30.55033 0 1 0 0-61.088402z m-91.638732 152.751652H366.0727263a30.55033 30.55033 0 1 0 0 61.100661h244.365865a30.55033 30.55033 0 1 0 0-61.100661z m0 0" p-id="3086" fill="#777777"></path></svg>