<?xml version="1.0" standalone="no"?><!DOCTYPE svg PUBLIC "-//W3C//DTD SVG 1.1//EN" "http://www.w3.org/Graphics/SVG/1.1/DTD/svg11.dtd"><svg t="1600941453246" class="icon" viewBox="0 0 1024 1024" version="1.1" xmlns="http://www.w3.org/2000/svg" p-id="6309" width="128" height="128" xmlns:xlink="http://www.w3.org/1999/xlink"><defs><style type="text/css"></style></defs><path d="M435.1744 228.1728a123.5712 123.5712 0 1 0-123.5712 123.5712 123.6992 123.6992 0 0 0 123.5712-123.5712z" fill="#777777" opacity=".96" p-id="6310"></path><path d="M247.7568 361.8304a218.0096 218.0096 0 0 0-148.2496 209.1264v149.1456a13.2864 13.2864 0 0 0 13.2864 13.2864h71.68v180.1728a11.0848 11.0848 0 0 0 11.1104 11.1104h232.96a11.0848 11.0848 0 0 0 11.1104-11.1104v-180.1728h55.3216a29.7216 29.7216 0 0 0 29.6448-29.6448v-145.92a212.48 212.48 0 0 0-276.864-195.9936z m640.6144-92.416a123.5712 123.5712 0 1 0-123.5712 123.5456 123.6992 123.6992 0 0 0 123.5712-123.5456z m73.3696 484.3264l-62.464-245.3248a145.4336 145.4336 0 0 0-284.16-2.2784l-62.976 247.6032a41.1904 41.1904 0 0 0 39.0656 51.2s30.72 0.5888 54.8352 0.7936c7.8336 23.296 19.4304 57.7024 29.952 91.0336a40.1408 40.1408 0 0 0 38.4 28.16h85.1712a39.9104 39.9104 0 0 0 38.0672-27.8528c10.5216-33.408 22.2208-68.7104 30.0544-92.16 24.192 0 54.8352-0.3072 54.8352-0.3072a40.8064 40.8064 0 0 0 31.8208-15.9744 40.32 40.32 0 0 0 7.3984-34.9184z" fill="#777777" opacity=".96" p-id="6311"></path></svg>